{"title":"The 3 Original Muppet Movies","uid":5484628,"size":2227289882,"categoryP":"video","categoryS":"movies","magnet":"?xt=urn:btih:72a0c9b4c949387de09f0210af4ae6ec6318f113&amp;dn=The+3+Original+Muppet+Movies&amp;tr=udp%3A%2F%2Ftracker.openbittorrent.com%3A80&amp;tr=udp%3A%2F%2Fopen.demonii.com%3A1337&amp;tr=udp%3A%2F%2Ftracker.coppersurfer.tk%3A6969&amp;tr=udp%3A%2F%2Fexodus.desync.com%3A6969","seeders":2,"leechers":1,"uploader":"rambam1776","files":-1,"time":1270640578,"description":"1979 - The Muppet Movie\n\n1981 - The Great Muppet Caper\n\n1984 - The Muppets Take Manhattan\n\n\nJim Henson only contributed to the first three Muppet Movies before his untimely death. They are available here and there in mixed quality, but here are the three Henson put his name on - the only REAL Henson Muppet movies - Freshly ripped. Subtitles included. All three are also available as NTSC DVD5 DVD-r Rips, just click my name to find them. The information below (Muppet Caper) is typical of all three films.\n\n\nVideo\nID                               : 0\nFormat                           : MPEG-4 Visual\nFormat profile                   : Simple@L3\nFormat settings, BVOP            : No\nFormat settings, QPel            : No\nFormat settings, GMC             : No warppoints\nFormat settings, Matrix          : Default (H.263)\nCodec ID                         : XVID\nCodec ID/Hint                    : XviD\nDuration                         : 1h 37mn\nBit rate                         : 543 Kbps\nWidth                            : 624 pixels\nHeight                           : 464 pixels\nDisplay aspect ratio             : 4:3\nFrame rate                       : 29.970 fps\nResolution                       : 8 bits\nColorimetry                      : 4:2:0\nScan type                        : Progressive\nBits/(Pixel*Frame)               : 0.063\nStream size                      : 380 MiB (54%)\nWriting library                  : XviD 1.2.1 (UTC 2008-12-04)\n\nAudio\nID                               : 1\nFormat                           : AC-3\nFormat/Info                      : Audio Coding 3\nCodec ID                         : 2000\nDuration                         : 1h 37mn\nBit rate mode                    : Constant\nBit rate                         : 448 Kbps\nChannel(s)                       : 6 channels\nChannel positions                : Front: L C R, Side: L R, LFE\nSampling rate                    : 48.0 KHz\nStream size                      : 314 MiB (45%)\nAlignment                        : Aligned on interleaves\nInterleave, duration             : 32 ms (0.96 video frame)\nInterleave, preload duration     : 32 ms","torrent":{"xt":"urn:btih:72a0c9b4c949387de09f0210af4ae6ec6318f113","amp;dn":"The+3+Original+Muppet+Movies","amp;tr":["udp%3A%2F%2Ftracker.openbittorrent.com%3A80","udp%3A%2F%2Fopen.demonii.com%3A1337","udp%3A%2F%2Ftracker.coppersurfer.tk%3A6969","udp%3A%2F%2Fexodus.desync.com%3A6969"],"infoHash":"72a0c9b4c949387de09f0210af4ae6ec6318f113","infoHashBuffer":{"type":"Buffer","data":[114,160,201,180,201,73,56,125,224,159,2,16,175,74,230,236,99,24,241,19]},"announce":[],"urlList":[]}}